<?xml version="1.0" encoding="UTF-8"?>
<svg xmlns="http://www.w3.org/2000/svg" xmlns:xlink="http://www.w3.org/1999/xlink" viewBox="0 0 50 50" width="50px" height="50px">
<g id="surface18075380">
<path style=" stroke:none;fill-rule:nonzero;fill:rgb(0%,0%,0%);fill-opacity:1;" d="M 2 25 C 2 12.316406 12.316406 2 25 2 C 37.683594 2 48 12.316406 48 25 C 48 28.238281 47.328125 31.324219 46.113281 34.125 L 43.75 33.996094 L 41.753906 28.90625 C 41.683594 28.648438 41.5625 28.40625 41.40625 28.1875 C 43.132812 28.324219 44.601562 28.507812 45.65625 28.675781 C 45.714844 28.351562 45.765625 28.023438 45.808594 27.691406 C 44.363281 27.460938 42.191406 27.203125 39.660156 27.078125 C 39.464844 27.035156 39.261719 27.011719 39.0625 27.011719 C 38.941406 27.011719 38.820312 27.019531 38.699219 27.035156 C 38.230469 27.019531 37.746094 27.007812 37.257812 27 C 37.386719 26.683594 37.496094 26.355469 37.585938 26.019531 C 41.167969 25.828125 44.273438 25.972656 45.941406 26.109375 C 45.960938 25.777344 45.992188 25.449219 45.992188 25.109375 C 44.316406 24.976562 41.289062 24.835938 37.789062 25.007812 C 37.855469 24.550781 37.898438 24.085938 37.898438 23.601562 C 38 21.800781 37.398438 20.101562 36.300781 18.601562 C 36.800781 17 37.601562 13.398438 36.101562 12 C 33.398438 12 31.5 13.300781 30.601562 14.101562 C 29 13.398438 27.101562 13 25 13 C 22.898438 13 21 13.398438 19.300781 14.101562 C 18.402344 13.300781 16.5 12 13.800781 12 C 12.402344 13.300781 13.101562 16.902344 13.601562 18.601562 C 12.5 20.101562 11.902344 21.902344 11.902344 23.601562 C 11.902344 24.132812 11.953125 24.644531 12.03125 25.144531 C 8.609375 24.984375 5.660156 25.121094 4.011719 25.253906 C 4.015625 25.589844 4.042969 25.921875 4.0625 26.253906 C 5.710938 26.117188 8.738281 25.980469 12.25 26.15625 C 12.332031 26.445312 12.429688 26.730469 12.542969 27.007812 C 9.039062 27.074219 5.992188 27.425781 4.195312 27.71875 C 4.238281 28.050781 4.289062 28.378906 4.347656 28.707031 C 6.167969 28.40625 9.359375 28.042969 13.023438 28 C 14.710938 30.910156 18.332031 32.792969 24 32.976562 L 24 33 C 22.648438 33 21.355469 34.054688 20.421875 35.445312 C 19.621094 35.875 18.285156 36 15.800781 36 C 14.199219 36 13.300781 35.101562 12.398438 34 C 11.601562 32.898438 10.300781 32.101562 9.699219 32 C 9.101562 32 8.898438 32.300781 9.199219 32.5 C 11 33.699219 11.300781 35.898438 12 37.199219 C 12.601562 38.398438 13.898438 39 15.398438 39 C 16 39 19 39 19 39 C 19.015625 38.996094 19.027344 38.992188 19.039062 38.988281 C 19.015625 39.199219 19 39.402344 19 39.601562 L 19 45 C 19 45.824219 18.503906 46.53125 17.789062 46.835938 C 8.628906 43.804688 2 35.164062 2 25 Z M 26 33 L 26 32.96875 C 31.238281 32.761719 34.699219 31.082031 36.472656 28.480469 C 36.390625 28.617188 36.320312 28.757812 36.269531 28.90625 L 34.273438 33.996094 L 28.886719 34.292969 C 28.808594 34.292969 28.730469 34.296875 28.65625 34.304688 C 27.867188 33.515625 26.945312 33 26 33 Z M 36.777344 27.996094 C 36.796875 27.996094 36.816406 27.996094 36.839844 27.996094 C 36.753906 28.085938 36.675781 28.179688 36.605469 28.277344 C 36.664062 28.183594 36.722656 28.089844 36.777344 27.996094 Z M 31.378906 42.972656 L 31 44.386719 L 31 42.664062 Z M 31.378906 42.972656 "/>
<path style=" stroke:none;fill-rule:nonzero;fill:rgb(0%,0%,0%);fill-opacity:1;" d="M 32.90625 49.910156 C 32.707031 49.910156 32.503906 49.8125 32.304688 49.710938 C 32.007812 49.511719 31.808594 49.011719 31.90625 48.613281 L 33.601562 42.128906 L 28.515625 37.941406 C 28.117188 37.742188 28.015625 37.242188 28.117188 36.84375 C 28.214844 36.445312 28.617188 36.144531 29.015625 36.144531 L 35.699219 35.746094 L 38.09375 29.460938 C 38.292969 29.261719 38.691406 28.960938 39.089844 28.960938 C 39.488281 28.960938 39.886719 29.261719 39.988281 29.5625 L 42.382812 35.84375 L 49.066406 36.246094 C 49.464844 36.246094 49.863281 36.542969 49.960938 36.941406 C 50.0625 37.34375 49.960938 37.742188 49.664062 38.039062 L 44.476562 42.230469 L 46.171875 48.714844 C 46.273438 49.113281 46.171875 49.511719 45.773438 49.8125 C 45.472656 50.011719 44.976562 50.109375 44.675781 49.8125 L 39.089844 46.121094 L 33.503906 49.710938 C 33.304688 49.8125 33.105469 49.910156 32.90625 49.910156 Z M 39.089844 43.925781 C 39.289062 43.925781 39.488281 44.027344 39.589844 44.125 L 43.578125 46.71875 L 42.382812 42.128906 C 42.28125 41.730469 42.382812 41.332031 42.679688 41.132812 L 46.371094 38.140625 L 41.582031 37.839844 C 41.183594 37.839844 40.886719 37.542969 40.683594 37.242188 L 39.089844 32.753906 L 37.394531 37.140625 C 37.195312 37.542969 36.894531 37.742188 36.496094 37.839844 L 31.707031 38.039062 L 35.398438 41.03125 C 35.699219 41.230469 35.796875 41.730469 35.699219 42.03125 L 34.5 46.617188 L 38.492188 44.027344 C 38.691406 44.027344 38.890625 43.925781 39.089844 43.925781 Z M 39.089844 43.925781 "/>
</g>
</svg>
